<?xml version="1.0" encoding="UTF-8"?>
<svg xmlns="http://www.w3.org/2000/svg" viewBox="0 0 454.76 433.2">
  <defs>
    <style>
      .cls-1, .cls-2, .cls-3, .cls-4, .cls-5, .cls-6, .cls-7, .cls-8, .cls-9, .cls-10, .cls-11, .cls-12 {
        mix-blend-mode: multiply;
      }

      .cls-1, .cls-3, .cls-13, .cls-5, .cls-10 {
        fill: #606060;
      }

      .cls-1, .cls-14 {
        opacity: .1;
      }

      .cls-2, .cls-15, .cls-9 {
        fill: #b87b6e;
      }

      .cls-16 {
        fill: #5b5bb5;
      }

      .cls-3 {
        opacity: .3;
      }

      .cls-17, .cls-18, .cls-19 {
        fill: #fff;
      }

      .cls-20 {
        fill: #606060;
      }

      .cls-21, .cls-18, .cls-22, .cls-19 {
        mix-blend-mode: soft-light;
      }

      .cls-23, .cls-24, .cls-11 {
        fill: #a7e0e5;
      }

      .cls-25 {
        fill: #c93684;
      }

      .cls-4 {
        opacity: .4;
      }

      .cls-26 {
        isolation: isolate;
      }

      .cls-27 {
        fill: #ff9845;
      }

      .cls-6, .cls-28 {
        fill: #1daeb5;
      }

      .cls-7, .cls-10 {
        opacity: .2;
      }

      .cls-24 {
        opacity: .6;
      }

      .cls-18, .cls-22, .cls-9, .cls-29, .cls-12 {
        opacity: .5;
      }

      .cls-30 {
        fill: none;
        stroke: #fff;
        stroke-linecap: round;
        stroke-linejoin: round;
      }

      .cls-31 {
        fill: #242754;
      }

      .cls-32 {
        opacity: .7;
      }
    </style>
  </defs>
  <g class="cls-26">
    <g id="Calque_2" data-name="Calque 2">
      <g id="OBJECTS">
        <g class="cls-32">
          <g>
            <path class="cls-28" d="M454.76,268.66s-13.94,45.74-21.6,76.86c-10.66,43.3-33.69,56.35-121.03,73.58,0,0-23.59-40.18,17.62-90.07,30.45-36.87,64.96-59.65,125.01-60.37Z"/>
            <path class="cls-3" d="M316.38,412.51s28-106.62,129.5-137.39c-1.11-1.63-86.18,53.07-129.5,137.39Z"/>
          </g>
          <g>
            <path class="cls-28" d="M143.82,419.62s8.76-55.92-26.37-87.99S0,287.18,0,287.18c0,0,23.59,87.26,52.72,103.8,29.13,16.54,91.1,28.64,91.1,28.64Z"/>
            <path class="cls-3" d="M14.38,297.6s86.33,39.93,124.33,110.93c0,0-74.33-74.53-124.33-110.93Z"/>
          </g>
          <path class="cls-28" d="M136.67,219.27c-11.51-3.58-16.79,27.32-18.42,41.8-4.24-5.89-9.24-12.71-14.01-18.91,6.71-9.32,27.39-40.29,8.4-43.24-10.87-1.69-11.29,27.49-10.78,40.17-4.06-5.19-7.82-9.71-10.6-12.52-1.27-1.28-2.51-2.52-3.74-3.73,3.68-8.09,15.34-36.1-.14-35.41-8.79.39-4.5,23.4-2.1,33.22-5.34-5.2-10.32-9.75-15.05-13.71,2.95-6.11,11.76-26.32-.63-25.77-7.06.31-3.38,16.9-1.31,24.16-4.13-3.37-8.07-6.29-11.88-8.8,2.21-6.84,6.18-22.31-3.47-21.6-5.38.4-2.14,12.47.34,19.61-3.62-2.21-7.14-4.04-10.63-5.55.34-3.73,1.51-21.14-6.99-18.23-4.97,1.7,3.28,14.09,6.06,17.85-3-1.25-5.99-2.27-8.99-3.06-2.19-2.15-19.66-18.84-23.63-7.79-2.39,6.65,19.33,8.01,23.26,8.03,1.72.84,4.8,2.41,8.84,4.74-3.86-.27-20.17-.61-18.8,4.71,2.32,9.01,17.16-2.63,19.34-4.39,3.07,1.79,6.64,3.99,10.57,6.64-6.83,1.92-21.06,6.81-17.95,11.82,5.27,8.5,15.98-4.96,19.92-10.48.29.2.59.41.89.62.07.15.12.25.14.27,0,0,.02-.05.05-.13,3.48,2.44,7.18,5.2,10.99,8.28-7.22,1.29-24.36,5.38-21.46,11.96,4.92,11.16,18.72-4.94,23.15-10.57,4.66,3.85,9.46,8.19,14.21,13.01-9.59,2.39-29.18,8.53-25.84,15.79,5.62,12.19,21.71-5.49,28.16-13.38,1.86,1.96,3.7,3.99,5.53,6.1,3.29,3.81,6.34,7.61,9.14,11.3-10.1,1.72-35.29,7.38-31.86,16.23,5.68,14.67,26.39-6.24,33.5-14.04,5.61,7.58,10.16,14.67,13.63,20.52-11.62.27-39.94,2.44-37.62,12.71,3.86,17.09,30-2.42,39.23-9.94,4.43,7.71,6.68,12.65,6.68,12.65,3.56-.72,4.47-.83,6.01-4.17,0,0-3.19-4.6-7.81-11.07,9.63-10.03,35.62-39.45,15.65-45.67Z"/>
          <path class="cls-28" d="M262.23,205.52c8.1-7.43,24.48,15.99,31.46,27.31,1.21-6.5,2.68-14.08,4.19-21.05-9.16-5.08-38.26-22.57-23.75-32.39,8.31-5.62,20.01,18.28,24.52,28.93,1.33-5.86,2.67-11.05,3.87-14.45.55-1.55,1.09-3.05,1.63-4.53-6.18-5.24-26.7-23.81-13.67-29.26,7.41-3.1,12.82,17.55,14.66,26.58,2.38-6.36,4.72-12.06,7.08-17.16-4.81-3.9-19.94-17.13-9.5-21.5,5.94-2.49,9.36,12.62,10.48,19.42,2.09-4.39,4.2-8.33,6.37-11.88-4.49-4.78-13.78-16-5.54-19.16,4.59-1.76,6.62,9.45,7.35,16.31,2.13-3.23,4.32-6.11,6.61-8.72-1.73-2.94-9.47-16.85-1.33-17.76,4.76-.53,2.77,12.9,1.94,17.08,1.99-2.2,4.06-4.2,6.22-6.02.97-2.63,8.88-23.19,16.46-15.62,4.56,4.56-12.83,14.13-16.06,15.68-1.09,1.36-3.02,3.85-5.45,7.35,3.08-1.73,16.4-8.35,17.34-3.43,1.59,8.33-15.18,4.51-17.66,3.9-1.83,2.67-3.92,5.88-6.14,9.59,6.38-1.08,20.02-2.57,19.41,2.76-1.04,9.07-15.11,2.13-20.51-.89-.16.28-.33.57-.49.85,0,.15,0,.25-.01.28,0,0-.03-.03-.1-.09-1.92,3.37-3.9,7.08-5.84,11.11,6.46-1.74,22.18-5.04,22.35,1.51.29,11.12-17.36,3.21-23.21.29-2.34,4.99-4.61,10.43-6.66,16.26,8.84-1.76,27.39-4.32,27.46,2.96.11,12.24-20.04,3.92-28.44-.08-.77,2.34-1.5,4.73-2.19,7.18-1.23,4.42-2.27,8.74-3.14,12.88,9-2.51,31.97-7.64,32.59.99,1.02,14.31-24.19,5.12-33.09,1.45-1.68,8.44-2.67,16.06-3.26,22.23,9.69-4.3,33.89-13.53,35.97-4.16,3.47,15.59-25.69,9.68-36.23,7.07-.66,8.08-.59,13.04-.59,13.04-3.22.79-4.01,1.06-6.58-1.1,0,0,.84-5.03,2.13-12.17-11.84-4.53-44.73-18.68-30.68-31.57Z"/>
        </g>
        <g>
          <g>
            <g>
              <path class="cls-31" d="M378.4,385.02l-299.93-.93c-6.8-.02-12.31-5.51-12.35-12.31l-1.22-188.83c-.04-6.79,1.33-18.34,14-17.59h303.86c7.04-.12,12.76,5.64,12.6,12.68l-4.52,194.87c-.16,6.74-5.68,12.12-12.43,12.1Z"/>
              <path class="cls-18" d="M395.34,178.04l-4.52,194.87c-.05,2.31-.74,4.46-1.88,6.28-2.2,3.52-6.11,5.84-10.55,5.83l-299.93-.93c-4.01-.01-7.58-1.93-9.83-4.9-1.57-2.06-2.5-4.62-2.52-7.41l-1.22-188.83c-.05-6.8,1.32-18.34,14-17.59h303.85c7.04-.12,12.76,5.64,12.6,12.68Z"/>
              <path class="cls-18" d="M264.72,373.69h-74.67c-1.06,0-1.92-.86-1.92-1.92h0c0-1.06.86-1.92,1.92-1.92h74.67c1.06,0,1.92.86,1.92,1.92h0c0,1.06-.86,1.92-1.92,1.92Z"/>
              <path class="cls-31" d="M388.94,379.19c-2.2,3.52-6.11,5.84-10.55,5.83l-299.93-.93c-4.01-.01-7.58-1.93-9.83-4.9h320.31Z"/>
              <g>
                <rect class="cls-17" x="78.89" y="180.28" width="300.16" height="184.55"/>
                <rect class="cls-24" x="78.89" y="180.28" width="300.16" height="184.55"/>
              </g>
              <g>
                <g>
                  <rect class="cls-23" x="297.02" y="325.86" width="73.38" height="14.39" rx="3.01" ry="3.01"/>
                  <g>
                    <path class="cls-17" d="M366.68,331.97s.02-.02.04-.05c-.23-.03-.44-.07-.66-.1-.7-.1-1.41-.21-2.12-.31-.2-.03-.39-.06-.59-.08-.08,0-.12-.04-.16-.11-.48-.99-.97-1.97-1.45-2.96-.01-.02-.02-.04-.04-.07,0,0-.01-.02-.02-.03-.06.13-.12.24-.18.35-.45.91-.9,1.82-1.35,2.72-.02.04-.07.08-.11.08-1.1.16-2.2.32-3.3.48-.03,0-.06.01-.08.02.14.15.28.3.42.44.55.54,1.1,1.07,1.65,1.61.12.12.24.23.36.35.03.03.05.09.04.14-.16.97-.33,1.94-.5,2.91-.03.15-.05.3-.08.48.28-.15.54-.28.79-.41.74-.39,1.49-.78,2.23-1.17.07-.04.12-.04.19,0,.97.51,1.94,1.02,2.91,1.53.03.02.06.03.1.05,0-.04,0-.07,0-.1-.15-.89-.3-1.78-.46-2.67-.04-.2-.07-.41-.11-.61-.01-.07.01-.11.06-.15.8-.78,1.61-1.56,2.41-2.34Z"/>
                    <g class="cls-8">
                      <path class="cls-23" d="M310.08,331.83c.21.03.43.06.66.1-.02.02-.03.03-.04.05-.8.78-1.6,1.56-2.41,2.34-.04.04-.07.09-.06.15.04.2.07.41.1.61.15.89.31,1.78.46,2.67,0,.03,0,.06,0,.1-.04-.02-.07-.03-.1-.05-.97-.51-1.94-1.02-2.91-1.53-.07-.03-.12-.03-.19,0-.74.39-1.48.78-2.23,1.17-.25.13-.51.27-.79.41.03-.18.05-.33.08-.48.17-.97.34-1.94.5-2.91,0-.04-.01-.1-.05-.13-.11-.12-.24-.24-.36-.35-.55-.54-1.1-1.07-1.65-1.61-.15-.14-.28-.3-.42-.44.02,0,.05-.01.08-.02l3.3-.48s.09-.05.12-.09c.45-.91.9-1.81,1.35-2.72.06-.12.11-.23.18-.35,0,0,.01.02.02.03.02.03.03.05.04.06.48.99.97,1.97,1.46,2.96.03.07.08.11.16.12.2.02.4.06.59.09.7.1,1.41.21,2.11.31Z"/>
                      <path class="cls-23" d="M324.08,331.83c.21.03.43.06.66.1-.02.02-.03.03-.04.05-.8.78-1.6,1.56-2.41,2.34-.04.04-.07.09-.06.15.04.2.07.41.1.61.15.89.31,1.78.46,2.67,0,.03,0,.06,0,.1-.04-.02-.07-.03-.1-.05-.97-.51-1.94-1.02-2.91-1.53-.07-.03-.12-.03-.19,0-.74.39-1.48.78-2.23,1.17-.25.13-.51.27-.79.41.03-.18.05-.33.08-.48.17-.97.34-1.94.5-2.91,0-.04-.01-.1-.04-.13-.12-.12-.24-.24-.36-.35-.55-.54-1.1-1.07-1.65-1.61-.15-.14-.28-.3-.42-.44.02,0,.05-.01.08-.02l3.3-.48s.1-.05.12-.09c.45-.91.9-1.81,1.35-2.72.06-.12.12-.23.18-.35,0,0,.01.02.02.03.02.03.03.05.04.06.48.99.97,1.97,1.46,2.96.03.07.08.11.16.12.2.02.4.06.59.09.7.1,1.41.21,2.11.31Z"/>
                      <path class="cls-23" d="M338.07,331.83c.21.03.43.06.66.1-.02.02-.03.03-.04.05-.8.78-1.6,1.56-2.41,2.34-.04.04-.07.09-.06.15.04.2.07.41.1.61.15.89.31,1.78.46,2.67,0,.03,0,.06,0,.1-.04-.02-.07-.03-.1-.05-.97-.51-1.94-1.02-2.91-1.53-.07-.03-.12-.03-.19,0-.74.39-1.48.78-2.23,1.17-.25.13-.51.27-.79.41.03-.18.05-.33.08-.48.17-.97.34-1.94.5-2.91,0-.04-.01-.1-.04-.13-.12-.12-.24-.24-.36-.35-.55-.54-1.1-1.07-1.65-1.61-.15-.14-.28-.3-.42-.44.02,0,.05-.01.08-.02,1.1-.16,2.2-.32,3.3-.48.04,0,.1-.05.12-.09.45-.91.9-1.81,1.35-2.72.06-.12.12-.23.18-.35,0,0,.01.02.02.03.02.03.03.05.04.06.48.99.97,1.97,1.46,2.96.03.07.08.11.16.12.2.02.4.06.59.09.71.1,1.41.21,2.11.31Z"/>
                      <path class="cls-23" d="M352.69,331.97s.02-.03.04-.05c-.23-.03-.45-.07-.66-.1-.71-.1-1.41-.21-2.11-.31-.2-.03-.39-.06-.59-.09-.08,0-.12-.04-.16-.12-.48-.98-.97-1.97-1.46-2.96,0-.02-.02-.04-.04-.06,0,0,0,0,0,0,0,0,0-.02-.01-.02-.06.12-.12.24-.18.35-.45.91-.89,1.81-1.35,2.72-.02.04-.07.08-.12.09-1.1.16-2.2.32-3.3.48-.03,0-.06.01-.08.02.14.15.28.3.42.44.55.54,1.1,1.07,1.65,1.61.12.12.24.23.36.35.03.03.05.09.04.13-.16.97-.33,1.94-.5,2.91-.03.15-.05.3-.08.48.28-.15.53-.28.79-.41.74-.39,1.49-.78,2.23-1.17.04-.02.07-.03.11-.03.02,0,.05.01.08.03.97.51,1.94,1.02,2.91,1.53.03.02.06.03.1.05,0-.04,0-.07,0-.1-.15-.89-.3-1.78-.46-2.67-.03-.2-.06-.41-.1-.61-.01-.07.01-.11.06-.15.8-.78,1.61-1.56,2.41-2.34Z"/>
                    </g>
                  </g>
                </g>
                <g>
                  <circle class="cls-11" cx="114.79" cy="214.96" r="24.3"/>
                  <g>
                    <path class="cls-17" d="M122.23,208.8c0,4.11-3.33,7.44-7.44,7.44-4.11,0-7.44-3.33-7.44-7.44s3.33-7.44,7.44-7.44c4.11,0,7.44,3.33,7.44,7.44Z"/>
                    <path class="cls-17" d="M128.16,226.53h-26.74c2.25-5.16,7.39-8.75,13.37-8.75,5.99,0,11.12,3.6,13.37,8.75Z"/>
                  </g>
                </g>
                <g>
                  <path class="cls-17" d="M144.61,307.18h-48.78l-5.35-4.94v17.76c0,2.28,1.75,4.13,3.91,4.13h50.22c2.16,0,3.91-1.85,3.91-4.13v-8.69c0-2.28-1.75-4.13-3.91-4.13Z"/>
                  <g>
                    <rect class="cls-23" x="93.58" y="311.11" width="51.47" height="1.25"/>
                    <rect class="cls-23" x="93.58" y="315.03" width="51.47" height="1.25"/>
                    <rect class="cls-23" x="93.58" y="318.95" width="11.4" height="1.25"/>
                  </g>
                </g>
                <g>
                  <path class="cls-23" d="M94.39,335.32h48.78l5.35-4.94v17.76c0,2.28-1.75,4.13-3.91,4.13h-50.22c-2.16,0-3.91-1.85-3.91-4.13v-8.69c0-2.28,1.75-4.13,3.91-4.13Z"/>
                  <g>
                    <rect class="cls-17" x="93.95" y="339.25" width="51.47" height="1.25" transform="translate(239.38 679.76) rotate(180)"/>
                    <rect class="cls-17" x="93.95" y="343.18" width="51.47" height="1.25" transform="translate(239.38 687.6) rotate(180)"/>
                    <rect class="cls-17" x="93.95" y="347.1" width="30.91" height="1.25" transform="translate(218.81 695.44) rotate(180)"/>
                  </g>
                </g>
                <g>
                  <rect class="cls-17" x="297.02" y="195.16" width="71.85" height="31.51" rx="4.84" ry="4.84"/>
                  <g>
                    <rect class="cls-23" x="303.13" y="200.86" width="61.15" height="2.5"/>
                    <rect class="cls-23" x="303.13" y="208.41" width="61.15" height="2.5"/>
                    <rect class="cls-23" x="303.13" y="215.97" width="61.15" height="2.5"/>
                  </g>
                </g>
                <g>
                  <rect class="cls-23" x="297.02" y="238.8" width="71.85" height="13.02" rx="4.84" ry="4.84"/>
                  <rect class="cls-23" x="297.02" y="261.69" width="71.85" height="13.02" rx="4.84" ry="4.84"/>
                  <rect class="cls-23" x="297.02" y="284.57" width="71.85" height="13.02" rx="4.84" ry="4.84"/>
                </g>
              </g>
            </g>
            <g>
              <path class="cls-31" d="M424.15,417.09c0,.95-.69,10.54-5.23,13.54-2.57,1.69-5.59,2.58-8.66,2.58l-365.07-.22c-2.89,0-5.7-.83-8.14-2.39-4.62-2.95-6.43-8.31-6.43-14.11,0-.56.29-1.06.71-1.37l.86-.71,34.11-27.76c2-1.64,4.52-2.54,7.11-2.54h312.65c2.87,0,5.65,1.1,7.74,3.08l28.78,27.22.42.4s1.15,1.35,1.15,2.29Z"/>
              <path class="cls-18" d="M422.58,414.4H32.19l34.11-27.76c2-1.64,4.52-2.54,7.11-2.54h312.65c2.87,0,5.65,1.1,7.74,3.08l28.78,27.22Z"/>
              <polygon class="cls-31" points="407.99 410.53 50.84 410.53 73.93 387.98 384.38 387.98 407.99 410.53"/>
              <g>
                <g>
                  <polygon class="cls-31" points="95.38 393.04 78.89 392.99 82.02 390.2 98.14 390.25 95.38 393.04"/>
                  <polygon class="cls-31" points="84.39 404.19 66.43 404.07 70.16 400.76 87.68 400.85 84.39 404.19"/>
                  <polygon class="cls-31" points="114.13 404.38 95.89 404.26 98.89 400.92 116.67 401.02 114.13 404.38"/>
                  <polygon class="cls-31" points="144.32 404.57 125.8 404.45 128.06 401.08 146.11 401.18 144.32 404.57"/>
                  <polygon class="cls-31" points="330.93 405.78 310.6 405.65 307.99 402.09 327.77 402.2 330.93 405.78"/>
                  <polygon class="cls-31" points="362.94 405.99 342.29 405.85 338.81 402.26 358.88 402.37 362.94 405.99"/>
                  <polygon class="cls-31" points="395.46 406.2 374.48 406.06 370.09 402.43 391.6 402.26 395.46 406.2"/>
                  <polygon class="cls-31" points="294.8 405.55 156.18 404.65 157.67 401.25 292.63 402 294.8 405.55"/>
                  <polygon class="cls-31" points="133.68 398.38 116.13 398.29 118.51 395.23 135.65 395.3 133.68 398.38"/>
                  <polygon class="cls-31" points="162.01 398.52 144.2 398.43 145.91 395.35 163.29 395.42 162.01 398.52"/>
                  <polygon class="cls-31" points="190.75 398.66 172.68 398.57 173.69 395.46 191.32 395.53 190.75 398.66"/>
                  <polygon class="cls-31" points="219.92 398.8 201.57 398.71 201.88 395.57 219.76 395.65 219.92 398.8"/>
                  <polygon class="cls-31" points="249.52 398.95 230.9 398.85 230.47 395.69 248.61 395.77 249.52 398.95"/>
                  <polygon class="cls-31" points="279.56 399.09 260.67 399 259.48 395.81 277.89 395.89 279.56 399.09"/>
                  <polygon class="cls-31" points="310.06 399.24 290.88 399.15 288.91 395.93 307.59 396.01 310.06 399.24"/>
                  <polygon class="cls-31" points="341.03 399.39 321.55 399.3 318.78 396.05 337.74 396.13 341.03 399.39"/>
                  <polygon class="cls-31" points="388.64 399.63 352.69 399.45 349.09 396.18 385.65 396.33 388.64 399.63"/>
                  <polygon class="cls-31" points="122.65 393.14 105.92 393.08 108.44 390.28 124.78 390.32 122.65 393.14"/>
                  <polygon class="cls-31" points="110 398.26 73.16 398.08 76.56 395.06 112.53 395.21 110 398.26"/>
                  <polygon class="cls-31" points="150.3 393.24 133.34 393.18 135.23 390.35 151.8 390.4 150.3 393.24"/>
                  <polygon class="cls-31" points="178.36 393.34 161.15 393.28 162.4 390.43 179.2 390.48 178.36 393.34"/>
                  <polygon class="cls-31" points="206.82 393.44 189.36 393.38 189.94 390.51 206.98 390.55 206.82 393.44"/>
                  <polygon class="cls-31" points="235.69 393.54 217.98 393.48 217.88 390.58 235.16 390.63 235.69 393.54"/>
                  <polygon class="cls-31" points="264.99 393.65 247.02 393.58 246.22 390.66 263.75 390.71 264.99 393.65"/>
                  <polygon class="cls-31" points="294.73 393.75 276.49 393.69 274.96 390.75 292.74 390.8 294.73 393.75"/>
                  <polygon class="cls-31" points="324.9 393.86 306.4 393.79 304.12 390.83 322.16 390.88 324.9 393.86"/>
                  <polygon class="cls-31" points="355.54 393.97 336.75 393.9 333.7 390.91 352.01 390.96 355.54 393.97"/>
                  <polygon class="cls-31" points="384.32 394.08 365.25 394.01 361.41 391 381.44 391.05 384.32 394.08"/>
                </g>
                <g class="cls-22">
                  <polygon class="cls-17" points="95.38 393.04 78.89 392.99 82.02 390.2 98.14 390.25 95.38 393.04"/>
                  <polygon class="cls-17" points="84.39 404.19 66.43 404.07 70.16 400.76 87.68 400.85 84.39 404.19"/>
                  <polygon class="cls-17" points="114.13 404.38 95.89 404.26 98.89 400.92 116.67 401.02 114.13 404.38"/>
                  <polygon class="cls-17" points="144.32 404.57 125.8 404.45 128.06 401.08 146.11 401.18 144.32 404.57"/>
                  <polygon class="cls-17" points="330.93 405.78 310.6 405.65 307.99 402.09 327.77 402.2 330.93 405.78"/>
                  <polygon class="cls-17" points="362.94 405.99 342.29 405.85 338.81 402.26 358.88 402.37 362.94 405.99"/>
                  <polygon class="cls-17" points="395.46 406.2 374.48 406.06 370.09 402.43 391.6 402.26 395.46 406.2"/>
                  <polygon class="cls-17" points="294.8 405.55 156.18 404.65 157.67 401.25 292.63 402 294.8 405.55"/>
                  <polygon class="cls-17" points="133.68 398.38 116.13 398.29 118.51 395.23 135.65 395.3 133.68 398.38"/>
                  <polygon class="cls-17" points="162.01 398.52 144.2 398.43 145.91 395.35 163.29 395.42 162.01 398.52"/>
                  <polygon class="cls-17" points="190.75 398.66 172.68 398.57 173.69 395.46 191.32 395.53 190.75 398.66"/>
                  <polygon class="cls-17" points="219.92 398.8 201.57 398.71 201.88 395.57 219.76 395.65 219.92 398.8"/>
                  <polygon class="cls-17" points="249.52 398.95 230.9 398.85 230.47 395.69 248.61 395.77 249.52 398.95"/>
                  <polygon class="cls-17" points="279.56 399.09 260.67 399 259.48 395.81 277.89 395.89 279.56 399.09"/>
                  <polygon class="cls-17" points="310.06 399.24 290.88 399.15 288.91 395.93 307.59 396.01 310.06 399.24"/>
                  <polygon class="cls-17" points="341.03 399.39 321.55 399.3 318.78 396.05 337.74 396.13 341.03 399.39"/>
                  <polygon class="cls-17" points="388.64 399.63 352.69 399.45 349.09 396.18 385.65 396.33 388.64 399.63"/>
                  <polygon class="cls-17" points="122.65 393.14 105.92 393.08 108.44 390.28 124.78 390.32 122.65 393.14"/>
                  <polygon class="cls-17" points="110 398.26 73.16 398.08 76.56 395.06 112.53 395.21 110 398.26"/>
                  <polygon class="cls-17" points="150.3 393.24 133.34 393.18 135.23 390.35 151.8 390.4 150.3 393.24"/>
                  <polygon class="cls-17" points="178.36 393.34 161.15 393.28 162.4 390.43 179.2 390.48 178.36 393.34"/>
                  <polygon class="cls-17" points="206.82 393.44 189.36 393.38 189.94 390.51 206.98 390.55 206.82 393.44"/>
                  <polygon class="cls-17" points="235.69 393.54 217.98 393.48 217.88 390.58 235.16 390.63 235.69 393.54"/>
                  <polygon class="cls-17" points="264.99 393.65 247.02 393.58 246.22 390.66 263.75 390.71 264.99 393.65"/>
                  <polygon class="cls-17" points="294.73 393.75 276.49 393.69 274.96 390.75 292.74 390.8 294.73 393.75"/>
                  <polygon class="cls-17" points="324.9 393.86 306.4 393.79 304.12 390.83 322.16 390.88 324.9 393.86"/>
                  <polygon class="cls-17" points="355.54 393.97 336.75 393.9 333.7 390.91 352.01 390.96 355.54 393.97"/>
                  <polygon class="cls-17" points="384.32 394.08 365.25 394.01 361.41 391 381.44 391.05 384.32 394.08"/>
                </g>
              </g>
            </g>
          </g>
          <g>
            <polygon class="cls-31" points="283.7 364.83 168.61 364.83 175.47 323.87 280.11 322.77 283.7 364.83"/>
            <path class="cls-16" d="M288,191.91s-10.82-20.12-36.21-28.98c-11.01-5.13-12.19-4.91-24.41-6.2-12.22,1.29-13.4,1.07-24.41,6.2-25.39,8.87-36.21,28.98-36.21,28.98,0,0-3.73-2.11,1.72,14.77.65,1.94,1.24,4,1.79,6.13.75,2.99,1.38,6.16,1.86,9.5,0,.04.03.09.03.17.11.85.22,1.7.33,2.57.22,1.58.34,3.19.46,4.85.1,1.55.19,3.11.22,4.72.03,1.19-1.92,88.73-1.92,88.73,9.52,16.69,100.04,16.69,112.3,0,0,0-1.95-87.54-1.92-88.73.03-1.61.11-3.17.22-4.72.11-1.66.24-3.27.46-4.85.11-.88.22-1.72.33-2.57,0-.08.03-.12.03-.17.48-3.34,1.11-6.51,1.86-9.5.54-2.13,1.14-4.19,1.79-6.13,5.46-16.88,1.72-14.77,1.72-14.77Z"/>
            <g>
              <path class="cls-15" d="M248.54,164.2s-13.96,20.56-21.74,22.12c-7.77,1.57-23.83-22.12-23.83-22.12,0,0,3.99-2.25,5.57-8.36.04-.17.08-.33.12-.5.13-.53.24-1.1.32-1.69.27-1.86.3-4,0-6.46h35s-.03.28-.08.78c-.01.27-.03.62-.04,1.03-.06,1.51-.03,3.82.44,6.31.01.03.01.06.02.09.56,3.02,1.77,6.31,4.21,8.8Z"/>
              <path class="cls-9" d="M226.49,165.32c-6.74.1-17.59-11.08-17.51-11.67.27-1.86.3-4,0-6.46h35s-.03.28-.08.78c-.01.27-.03.62-.04,1.03-.04.97.16,3.31.31,4.87.08.88-11.08,11.35-17.69,11.45Z"/>
            </g>
            <g>
              <g>
                <path class="cls-15" d="M140.06,292.88c.45-7.58.08-14.83,3.56-21.94.46-.94.96-1.8,1.5-2.6-2.74.55-4.38.87-4.38.87l-71.64-31.33c-5.49,2.79-7.23,11.97-7.23,11.97,0,0,66.47,45.26,77.28,45.65.3.01.64.01,1.01,0-.12-.87-.16-1.75-.1-2.63Z"/>
                <g>
                  <g>
                    <path class="cls-15" d="M78.07,250.18c-8.36-.85-.92-10.97-.92-10.97,0,0-3.2-4.11-11.78-3.13-1.7.44-4.09.41-5.11.03-.96-.36-5.05-5.65-10.01-4.96-.74.15-1.1.25-1.75.8-2.88,2.36,7.31,10.89,9.86,11.94,2.47,1.01,11.66,6.55,18.78,6.36-.02-.02.35-.05.94-.08,0,0,0,0,0,0Z"/>
                    <path class="cls-15" d="M43.57,228.16c-.13-.26-.42-2.66-1.31-3.25-1.47-1.11-4.2.01-4.08,4.86.04,1.48.07,2.61.12,3.53-.92-2.31-2.22-8.31-3.87-9.26-1.88-1.09-4.88.59-3.98,6.2.15.93.27,1.71.39,2.43,2.69,1.42,5.69,3.18,8.46,4.87,4.71,2.86,8.73,5.48,9.33,5.76.21.1.71.05,1.38-.09.81-.17,1.86-.47,2.96-.82-2.01-1.98-7.72-7.65-8.25-8.59-.39-.69-.67-3.37-1.15-5.64Z"/>
                  </g>
                  <g class="cls-4">
                    <path class="cls-15" d="M78.07,250.18c-8.36-.85-.92-10.97-.92-10.97,0,0-3.2-4.11-11.78-3.13-1.7.44-4.09.41-5.11.03-.96-.36-5.05-5.65-10.01-4.96-.74.15-1.1.25-1.75.8-2.88,2.36,7.31,10.89,9.86,11.94,2.47,1.01,11.66,6.55,18.78,6.36-.02-.02.35-.05.94-.08,0,0,0,0,0,0Z"/>
                    <path class="cls-15" d="M43.57,228.16c-.13-.26-.42-2.66-1.31-3.25-1.47-1.11-4.2.01-4.08,4.86.04,1.48.07,2.61.12,3.53-.92-2.31-2.22-8.31-3.87-9.26-1.88-1.09-4.88.59-3.98,6.2.15.93.27,1.71.39,2.43,2.69,1.42,5.69,3.18,8.46,4.87,4.71,2.86,8.73,5.48,9.33,5.76.21.1.71.05,1.38-.09.81-.17,1.86-.47,2.96-.82-2.01-1.98-7.72-7.65-8.25-8.59-.39-.69-.67-3.37-1.15-5.64Z"/>
                  </g>
                  <path class="cls-15" d="M49.18,243.72s-7.83-2.05-9.89-2.69c-2.05-.64-7.26-4.66-9.51-4.66-1.3.1-3.15,2.42-.35,4.73,2.8,2.31,14.56,10.13,16.96,10.99,2.4.85,7.44-2.2,7.44-2.2l-4.66-6.17Z"/>
                  <path class="cls-15" d="M78.95,239.95c-5.82-6.41-21,.56-21,.56h0c-1,.48-3.04,1.26-4.97,1.89-1.1.36-2.15.66-2.96.82-.67.14-1.17.18-1.38.09-.59-.28-4.62-2.9-9.33-5.76-2.77-1.69-5.77-3.45-8.46-4.87-.65-.35-1.29-.68-1.9-.98-6.75-3.47-9.36.13-4.83,3.54,4.63,2.82,18.56,16.21,23.2,17.21,4.6.99,20.04,1.7,20.35,1.72-.15-.05,17.65-2.98,17.65-2.98,0,0-2.89-7.98-6.36-11.25Z"/>
                  <path class="cls-2" d="M28.02,238.16s1.09-2.2,2.52-1.66c1.43.54,8.08,4.27,8.08,4.27,0,0,8.01,2.39,10.01,2.54l-9.67-3.45s-7.57-4.21-8.68-4.4c-1.11-.19-2.22,2.18-2.26,2.7Z"/>
                </g>
                <path class="cls-16" d="M205.69,161.78s-23.32,43.42-23.72,60.66c-.18,7.65-3.91,23.29-9.47,38.37h0c-4.11,11.19-9.21,22.07-14.61,29.16-3.74,4.94-7.62,8.04-11.41,8.15-20.99.81-71.82-34.16-71.82-34.16,1.58-8.8,9.73-21.66,9.73-21.66l51.74,20.12,1.07-4.49c6.42-26.78,13.18-49.85,20.91-68.91,2.43-5.96,7.25-10.78,13.37-13.51l34.21-13.73Z"/>
                <path class="cls-10" d="M175.94,211.25l-3.45,49.56h0c-4.11,11.19-9.21,22.07-14.61,29.16,6.02-22.02,18.06-78.72,18.06-78.72Z"/>
                <path class="cls-10" d="M146.87,274.97c-2.56-4.56-5.29-9.06-10.74-12.56l1.07-4.49c12.09,6.12,9.68,17.05,9.68,17.05Z"/>
              </g>
              <g>
                <path class="cls-15" d="M314.7,292.88c-.45-7.58-.08-14.83-3.56-21.94-.46-.94-.96-1.8-1.5-2.6,2.74.55,4.38.87,4.38.87l71.64-31.33c5.49,2.79,7.23,11.97,7.23,11.97,0,0-66.47,45.26-77.28,45.65-.3.01-.64.01-1.01,0,.12-.87.16-1.75.1-2.63Z"/>
                <g>
                  <g>
                    <path class="cls-15" d="M406.26,231.96c-.65-.56-1.01-.66-1.75-.8-4.96-.7-9.05,4.6-10.01,4.96-1.02.38-3.41.41-5.11-.03-8.58-.98-11.78,3.13-11.78,3.13,0,0,7.44,10.12-.92,10.97,0,0,0,0,0,0,.59.03.96.06.94.08,7.12.19,16.3-5.35,18.78-6.36,2.55-1.05,12.75-9.58,9.86-11.94Z"/>
                    <path class="cls-15" d="M420.33,224.04c-1.65.95-2.95,6.95-3.87,9.26.04-.92.08-2.05.12-3.53.12-4.85-2.6-5.97-4.08-4.86-.89.59-1.18,3-1.31,3.25-.48,2.27-.76,4.95-1.15,5.64-.53.94-6.24,6.61-8.25,8.59,1.1.36,2.15.66,2.96.82.67.14,1.17.18,1.38.09.59-.28,4.62-2.9,9.33-5.76,2.77-1.69,5.78-3.44,8.46-4.87.12-.72.25-1.51.39-2.43.89-5.61-2.1-7.29-3.98-6.2Z"/>
                  </g>
                  <g class="cls-12">
                    <path class="cls-15" d="M406.26,231.96c-.65-.56-1.01-.66-1.75-.8-4.96-.7-9.05,4.6-10.01,4.96-1.02.38-3.41.41-5.11-.03-8.58-.98-11.78,3.13-11.78,3.13,0,0,7.44,10.12-.92,10.97,0,0,0,0,0,0,.59.03.96.06.94.08,7.12.19,16.3-5.35,18.78-6.36,2.55-1.05,12.75-9.58,9.86-11.94Z"/>
                    <path class="cls-15" d="M420.33,224.04c-1.65.95-2.95,6.95-3.87,9.26.04-.92.08-2.05.12-3.53.12-4.85-2.6-5.97-4.08-4.86-.89.59-1.18,3-1.31,3.25-.48,2.27-.76,4.95-1.15,5.64-.53.94-6.24,6.61-8.25,8.59,1.1.36,2.15.66,2.96.82.67.14,1.17.18,1.38.09.59-.28,4.62-2.9,9.33-5.76,2.77-1.69,5.78-3.44,8.46-4.87.12-.72.25-1.51.39-2.43.89-5.61-2.1-7.29-3.98-6.2Z"/>
                  </g>
                  <path class="cls-15" d="M405.58,243.72s7.83-2.05,9.89-2.69c2.05-.64,7.26-4.66,9.51-4.66,1.3.1,3.15,2.42.35,4.73-2.8,2.31-14.56,10.13-16.96,10.99-2.4.85-7.44-2.2-7.44-2.2l4.66-6.17Z"/>
                  <path class="cls-15" d="M375.82,239.95c5.82-6.41,21,.56,21,.56h0c1,.48,3.04,1.26,4.97,1.89,1.1.36,2.15.66,2.96.82.67.14,1.17.18,1.38.09.59-.28,4.62-2.9,9.33-5.76,2.77-1.69,5.77-3.45,8.46-4.87.65-.35,1.29-.68,1.9-.98,6.75-3.47,9.36.13,4.83,3.54-4.63,2.82-18.56,16.21-23.2,17.21-4.6.99-20.04,1.7-20.35,1.72.15-.05-17.65-2.98-17.65-2.98,0,0,2.89-7.98,6.36-11.25Z"/>
                  <path class="cls-2" d="M426.74,238.16s-1.09-2.2-2.52-1.66c-1.43.54-8.08,4.27-8.08,4.27,0,0-8.01,2.39-10.01,2.54l9.67-3.45s7.57-4.21,8.68-4.4c1.11-.19,2.22,2.18,2.26,2.7Z"/>
                </g>
                <path class="cls-16" d="M249.08,161.78s23.32,43.42,23.72,60.66c.18,7.65,3.91,23.29,9.47,38.37h0c4.11,11.19,9.21,22.07,14.61,29.16,3.74,4.94,7.62,8.04,11.41,8.15,20.99.81,71.82-34.16,71.82-34.16-1.58-8.8-9.73-21.66-9.73-21.66l-51.74,20.12-1.07-4.49c-6.42-26.78-13.18-49.85-20.91-68.91-2.43-5.96-7.25-10.78-13.37-13.51l-34.21-13.73Z"/>
                <path class="cls-10" d="M278.82,211.25l3.45,49.56h0c4.11,11.19,9.21,22.07,14.61,29.16-6.02-22.02-18.06-78.72-18.06-78.72Z"/>
                <path class="cls-10" d="M307.9,274.97c2.56-4.56,5.29-9.06,10.74-12.56l-1.07-4.49c-12.09,6.12-9.68,17.05-9.68,17.05Z"/>
              </g>
            </g>
            <g>
              <g>
                <g>
                  <polygon class="cls-27" points="241.55 290.78 225.37 311.86 210.36 290.11 221.28 196.12 221.71 192.34 230.6 192.34 231.02 196.06 241.55 290.78"/>
                  <path class="cls-10" d="M231.02,196.06c-1.69,2.12-3.58,3.97-5.05,3.97-1.37,0-3.1-1.78-4.69-3.91l.44-3.77h8.89l.41,3.71Z"/>
                </g>
                <path class="cls-27" d="M216.74,184.93s2.33,4.56,4.92,7.89c1.48,1.9,3.05,3.4,4.31,3.4,1.39,0,3.16-1.65,4.77-3.62,2.39-2.92,4.44-6.55,4.44-6.55.27-2.04-3.69-8.3-8.76-8.58-3.04-.17-6.45,2.68-9.67,7.47Z"/>
                <g class="cls-21">
                  <polygon class="cls-17" points="238.33 261.79 210.58 288.15 210.4 289.7 238.46 263.04 238.33 261.79"/>
                  <polygon class="cls-17" points="214.81 251.82 235.08 232.56 234.94 231.31 214.99 250.27 214.81 251.82"/>
                  <polygon class="cls-17" points="219.21 213.94 231.69 202.08 231.55 200.83 219.39 212.39 219.21 213.94"/>
                  <polygon class="cls-17" points="218.21 222.56 217.3 230.31 233.15 215.25 232.46 209.02 218.21 222.56"/>
                  <path class="cls-17" d="M229.33,178.29l-10.64,10.11c.8,1.34,1.79,2.87,2.82,4.22l11.65-11.07c-1-1.27-2.32-2.48-3.83-3.25Z"/>
                  <polygon class="cls-17" points="239.93 276.21 239.24 269.97 213.4 294.53 216.28 298.69 239.93 276.21"/>
                  <polygon class="cls-17" points="236.54 245.73 235.85 239.5 213.8 260.44 212.9 268.2 236.54 245.73"/>
                </g>
              </g>
              <g class="cls-7">
                <path class="cls-13" d="M200.76,163.89c3.39,8.69,6.72,22.26,14.64,32.84l11.02-19.27-19.08-16.39-6.57,2.82Z"/>
                <path class="cls-13" d="M245.38,161.07l-18.97,16.39,11.19,19.95c7.92-10.58,10.8-25.8,14.19-34.49l-6.41-1.85Z"/>
              </g>
              <g>
                <path class="cls-16" d="M200.76,163.89c3.39,8.69,6.72,18.26,14.64,28.84l10.96-15.27-19.02-20.39-6.57,6.82Z"/>
                <path class="cls-16" d="M245.38,157.07l-19.02,20.39,11.25,15.95c7.92-10.58,11.09-22.28,14.48-30.97l-6.7-5.37Z"/>
              </g>
              <g class="cls-21">
                <path class="cls-17" d="M200.76,163.89c3.39,8.69,6.72,18.26,14.64,28.84l10.96-15.27-19.02-20.39-6.57,6.82Z"/>
                <path class="cls-17" d="M245.38,157.07l-19.02,20.39,11.25,15.95c7.92-10.58,11.09-22.28,14.48-30.97l-6.7-5.37Z"/>
              </g>
            </g>
            <g>
              <g>
                <path class="cls-15" d="M194.37,111.33c.34,25.51,14.26,46.12,31.35,46.74.36.04.72.05,1.08.03,14.57-.18,26.66-14.84,30.16-34.68.75-4.1,1.12-8.44,1.06-12.91-.34-26.04-14.47-37.74-32.03-37.53-17.58.24-31.96,12.3-31.61,38.35Z"/>
                <g class="cls-8">
                  <g>
                    <path class="cls-15" d="M245.58,122.01c.08.53,1.45.75,3.05.5,1.6-.25,2.84-.88,2.76-1.41-.08-.53-1.45-.75-3.05-.5-1.6.25-2.84.88-2.76,1.41Z"/>
                    <path class="cls-15" d="M245.35,125.19c.07-.53,1.43-.79,3.04-.58,1.61.21,2.86.81,2.79,1.34-.07.53-1.43.79-3.04.58-1.61-.21-2.86-.81-2.79-1.34Z"/>
                  </g>
                  <g>
                    <path class="cls-15" d="M205.82,126.03c-.08-.53-1.45-.75-3.05-.5-1.6.25-2.84.88-2.76,1.41.08.53,1.45.75,3.05.5,1.6-.25,2.84-.88,2.76-1.41Z"/>
                    <path class="cls-15" d="M206.06,122.85c-.07.53-1.43.79-3.04.58-1.61-.21-2.86-.81-2.79-1.34.07-.53,1.43-.79,3.04-.58,1.61.21,2.86.81,2.79,1.34Z"/>
                  </g>
                  <path class="cls-15" d="M225.8,131.59c-.07,0-.13,0-.2.01-.84,0-2.85-.51-3.54-5.47-1.13-8.11-.25-12.75-.21-12.94.06-.3.35-.5.65-.44.3.06.49.35.44.65,0,.05-.88,4.66.22,12.57.46,3.34,1.56,4.52,2.44,4.51,1.28,0,2.98-2.35,3.43-6.11.04-.3.31-.52.62-.48.3.04.52.31.48.62-.47,3.96-2.27,6.88-4.32,7.08Z"/>
                </g>
                <g>
                  <path class="cls-31" d="M208.62,106.95c1.7-.85,3.76-.86,6.12-.06.82.28,1.72-.16,2-.98.28-.82-.16-1.72-.98-2-3.2-1.09-6.08-1.01-8.57.23-3.92,1.97-5.16,8.03-4.34,8.29.17.05,3.07-4.15,5.77-5.49Z"/>
                  <path class="cls-31" d="M248.08,111.01c.82-.29-.58-6.31-4.55-8.18-2.52-1.18-5.4-1.19-8.57-.01-.82.3-1.23,1.21-.93,2.02.3.82,1.21,1.23,2.02.93,2.35-.87,4.42-.9,6.14-.09,2.74,1.29,5.72,5.39,5.89,5.33Z"/>
                  <path class="cls-31" d="M207.86,119.03c-.03-1.36.31-2.76,1.11-3.98.39-.62.94-1.16,1.61-1.59.68-.42,1.53-.62,2.36-.56,1.72.16,2.97,1.38,3.65,2.61.71,1.26.99,2.66.91,4.02-.62-1.21-1.23-2.35-2.02-3.27-.78-.9-1.72-1.62-2.69-1.66-.96-.12-1.95.42-2.78,1.27-.84.85-1.5,1.96-2.15,3.15Z"/>
                  <path class="cls-31" d="M233.25,118.3c-.03-1.36.31-2.76,1.11-3.98.39-.62.94-1.16,1.61-1.59.68-.42,1.53-.62,2.36-.56,1.72.16,2.97,1.38,3.65,2.61.71,1.26.99,2.66.91,4.02-.62-1.21-1.23-2.35-2.02-3.27-.78-.9-1.72-1.62-2.69-1.66-.96-.12-1.95.42-2.78,1.27-.84.86-1.5,1.96-2.15,3.15Z"/>
                </g>
                <path class="cls-17" d="M215.21,135.88s1.65,2.84,4.96,4.61c.3.17.65.34.99.48,1.43.61,3.12,1,5.09.92,2.33-.09,4.23-.8,5.74-1.73.31-.19.6-.38.86-.59,2.71-1.98,3.93-4.54,3.93-4.54,0,0-9.57,4.61-21.56.85Z"/>
              </g>
              <path class="cls-31" d="M192.53,113.86l6.07,10.08-1-22.03s2.43-.78,2.78-2.99c.47-2.92-1.26-5.13-1.26-5.13,0,0,3.74,1.38,5.59-.16,1.79-1.5.97-4.56.97-4.56,0,0,2.71,4.03,6.56,3.83,3.85-.2,6.68-4.93,6.68-4.93,0,0,.72,2.37,2.56,2.66,1.84.29,3.83-2.2,3.83-2.2,0,0,3.1,4.16,7.39,4.31,4.29.15,6.86-4.7,6.86-4.7,0,0-.37,2.53,1.86,3.32,2.23.79,4.05-1.01,4.05-1.01,0,0-.7,3.97,1.35,6.04,2.99,3.02,5.74.63,5.74.63l1.73,25.15,4.01-5.11.76-19.91s2.82-.54,2.75-2.87c-.07-2.33-2.53-3.09-2.53-3.09,0,0,5.45.08,6.09-4.28.64-4.36-4.38-5.35-4.38-5.35,0,0,2.06-.17,1.21-2.75-.85-2.58-3.08-2.13-3.08-2.13,0,0,6.34-3.93,1.06-8.87-5.28-4.94-9.81-1.33-9.81-1.33,0,0,.47-3.43-2.13-4.4-2.6-.97-3.66,2.1-3.66,2.1,0,0-.63-8.39-7.43-8.25-6.81.14-6.76,4.86-6.76,4.86,0,0-1.21-3.08-3.12-2.74-1.91.33-1.99,2.53-1.99,2.53,0,0-1.76-5.01-6.81-4.74-5.04.27-5.46,7.16-5.46,7.16,0,0-.96-3.85-5.89-3.1-4.93.75-4.33,5.67-4.33,5.67,0,0-5.09-2.41-8.62.48-3.53,2.89-2.13,7.72-2.13,7.72,0,0-3.45-.88-4.3.79-.85,1.67,1.58,4.21,1.58,4.21,0,0-3.94,1.29-4.43,5.19-.5,3.9,5.4,6.68,5.4,6.68,0,0-3.62.75-3.51,4.08.11,3.33,4.38,4.87,4.38,4.87l1.38,14.27Z"/>
            </g>
            <g>
              <g>
                <g>
                  <path class="cls-31" d="M241.53,152.53s-.05,0-.06,0v-1s9.23.03,15.42-6.12c3.84-3.81,5.77-9.18,5.74-15.96h1c.03,7.06-2.01,12.67-6.04,16.68-6.29,6.24-15.16,6.4-16.06,6.4Z"/>
                  <path class="cls-19" d="M241.53,152.53s-.05,0-.06,0v-1s9.23.03,15.42-6.12c3.84-3.81,5.77-9.18,5.74-15.96h1c.03,7.06-2.01,12.67-6.04,16.68-6.29,6.24-15.16,6.4-16.06,6.4Z"/>
                </g>
                <path class="cls-31" d="M244.49,154.98l-5.08.74c-1.84.27-3.54-1.01-3.81-2.84h0c-.27-1.84,1.01-3.54,2.84-3.81l5.08-.74c1.84-.27,3.54,1.01,3.81,2.84h0c.27,1.84-1.01,3.54-2.84,3.81Z"/>
              </g>
              <path class="cls-20" d="M185.71,104.59c-.51-5.24.06-10.49,1.47-15.55,1.46-5.04,4.02-9.83,7.64-13.73,1.78-1.97,3.87-3.66,6.1-5.09,2.22-1.47,4.64-2.58,7.1-3.52,4.97-1.82,10.19-2.72,15.42-3.01,5.24-.22,10.53.16,15.64,1.55,5.09,1.35,10.01,3.71,14,7.24,4.03,3.47,7.1,7.94,9.15,12.77,1.02,2.42,1.79,4.94,2.35,7.49.56,2.56.91,5.14.94,7.79h-1c-.36-5.02-1.64-10.06-3.73-14.64-2.07-4.6-5.08-8.78-8.94-11.96-3.83-3.21-8.42-5.46-13.29-6.69-4.86-1.3-9.97-1.62-15.01-1.39-5.05.25-10.09,1.09-14.82,2.78-2.35.88-4.64,1.92-6.74,3.28-2.1,1.34-4.09,2.87-5.81,4.7-3.47,3.6-5.99,8.08-7.51,12.89-1.54,4.8-2.21,9.95-1.97,14.99l-.99.11Z"/>
              <g>
                <g>
                  <path class="cls-31" d="M188.59,107.67l-3.89,1.22c-.65-1.28-.9-2.57-.86-3.86.03-1.09.86-2,1.94-2.16h0c1.29-.18,2.46.75,2.57,2.05l.23,2.75Z"/>
                  <path class="cls-31" d="M194.71,133.38c-5.09,3.63-10.08-1.04-10.61-3.33-.94-5.12-1.68-10.09-2.06-14.87-.05-.74-.1-1.48-.14-2.21-.04-2,4.58-7.7,10.02-5.78.08.4,1.44,13.05,2.23,20.62.33,3.15.56,5.42.56,5.57Z"/>
                  <path class="cls-19" d="M182.95,113.1s1.88-5.44,8.07-5.18l.13,1.43s-5.15-.28-8.2,3.75Z"/>
                  <path class="cls-3" d="M194.71,133.38c-5.09,3.63-10.08-1.04-10.61-3.33-.94-5.12-1.68-10.09-2.06-14.87.51,4.11,2.68,12.55,12.11,12.63.33,3.15.56,5.42.56,5.57Z"/>
                  <path class="cls-20" d="M198.59,132.54c.12,1.19-.75,2.25-1.94,2.37s-2.25-.74-2.37-1.93l-2.47-24.36c-.11-1.05.56-2,1.53-2.29.13-.04.27-.07.41-.08.07,0,.15,0,.22,0,1.1,0,2.04.82,2.15,1.94l2.08,20.52.39,3.84Z"/>
                </g>
                <g>
                  <path class="cls-31" d="M263.12,103.74l3.99.8c.51-1.34.62-2.65.44-3.93-.15-1.08-1.07-1.9-2.16-1.93h0c-1.3-.04-2.37,1.01-2.34,2.31l.06,2.76Z"/>
                  <path class="cls-31" d="M259.8,129.96c5.45,3.06,9.91-2.12,10.19-4.45.38-5.19.58-10.21.45-15.01-.03-.74-.06-1.48-.1-2.21-.18-1.99-5.38-7.16-10.58-4.67-.04.41-.03,13.13,0,20.74.01,3.17.03,5.45.04,5.6Z"/>
                  <path class="cls-19" d="M269.31,108.53s-2.46-5.2-8.58-4.28l.03,1.44s5.09-.83,8.56,2.85Z"/>
                  <path class="cls-3" d="M259.8,129.96c5.45,3.06,9.91-2.12,10.19-4.45.38-5.19.58-10.21.45-15.01-.06,4.14-1.31,12.77-10.68,13.86.01,3.17.03,5.45.04,5.6Z"/>
                  <path class="cls-20" d="M255.85,129.54c0,1.2.99,2.16,2.18,2.15,1.2,0,2.16-.98,2.15-2.17l-.17-24.48c0-1.06-.77-1.93-1.77-2.11-.13-.03-.28-.04-.42-.04-.07,0-.15,0-.22.01-1.09.12-1.94,1.03-1.93,2.16l.14,20.62.03,3.86Z"/>
                </g>
              </g>
            </g>
          </g>
        </g>
        <g>
          <g>
            <g>
              <path class="cls-28" d="M51.4,74.07c-21.52,0-39.03,17.51-39.03,39.03s17.51,39.03,39.03,39.03,39.03-17.51,39.03-39.03-17.51-39.03-39.03-39.03Z"/>
              <path class="cls-28" d="M143.32,0c-19.82,0-35.95,16.13-35.95,35.95s16.13,35.95,35.95,35.95,35.95-16.13,35.95-35.95S163.15,0,143.32,0Z"/>
              <path class="cls-28" d="M403.31,74.07c-21.52,0-39.03,17.51-39.03,39.03s17.51,39.03,39.03,39.03,39.03-17.51,39.03-39.03-17.51-39.03-39.03-39.03Z"/>
              <path class="cls-28" d="M311.44,0c-19.82,0-35.95,16.13-35.95,35.95s16.13,35.95,35.95,35.95,35.95-16.13,35.95-35.95S331.26,0,311.44,0Z"/>
            </g>
            <g>
              <g>
                <g>
                  <path class="cls-17" d="M36.28,117.41c-2.45-8.14,2.17-16.72,10.31-19.16,8.14-2.45,16.72,2.17,19.16,10.31,1.47,4.88.39,9.91-2.45,13.69-.92,1.86-2.05,6.26,1.27,14.35l-5.93,1.78-5.93,1.78c-1.68-8.58-5.06-11.63-6.85-12.68-4.46-1.58-8.13-5.19-9.59-10.07Z"/>
                  <path class="cls-27" d="M54.9,133.27c-.03-.08-2.23-6.86-4.25-10.34-1.54.48-2.2-.3-2.38-.59-.38-.6-.32-1.39.13-1.72.22-.16.81-.41,1.72.64.24.29.5.64.75,1.06.16-.07.33-.15.5-.24.98-.53,1.73-1.17,2.25-1.84-.93-.89-1.55-2.02-1.62-2.93-.06-.81.35-1.33,1.1-1.39.9-.07,1.6.4,1.85,1.26.25.84.05,1.93-.65,2.99.52.43,1.12.77,1.77.92.04-.78.2-1.36.53-1.62.73-.58,1.49-.46,1.97-.15.46.3.69.78.57,1.24-.09.36-.48.99-2.07,1.11-.18.01-.35.01-.53,0,.08,2.62,1.23,7.41,2.2,10.62l-.48.14c-.27-.91-2.16-7.32-2.2-10.83-.74-.16-1.44-.53-2.05-1.02-.56.7-1.35,1.38-2.39,1.94-.17.09-.33.17-.48.23,2.02,3.53,4.14,10.04,4.25,10.36l-.48.15ZM48.86,120.97c-.06,0-.11.02-.16.05-.21.15-.26.66,0,1.05.31.48.91.62,1.69.41-.22-.35-.44-.65-.65-.9-.34-.4-.66-.62-.88-.62ZM56.53,121.17c.16.01.32.01.49,0,.92-.07,1.52-.35,1.62-.74.06-.24-.08-.52-.36-.69-.33-.21-.86-.29-1.38.12-.23.19-.35.65-.37,1.3ZM53.27,116.42s-.09,0-.13,0c-.17.01-.7.06-.64.85.06.71.59,1.73,1.42,2.56.58-.91.75-1.82.55-2.5-.17-.58-.6-.91-1.2-.91Z"/>
                  <path class="cls-1" d="M43.64,120.23c-1.45-4.84,1.29-9.94,6.13-11.39,4.84-1.45,9.94,1.29,11.39,6.13.87,2.9.23,5.89-1.46,8.14-.54,1.1-1.22,3.72.76,8.53l-3.52,1.06-3.52,1.06c-1-5.1-3.01-6.91-4.07-7.53-2.65-.94-4.83-3.09-5.7-5.99Z"/>
                  <rect class="cls-27" x="53.78" y="138.16" width="10.79" height="4" rx=".9" ry=".9" transform="translate(156.19 257.37) rotate(163.28)"/>
                  <path class="cls-27" d="M53.21,141.5l11.69-3.51c.34-.1.54-.48.48-.89l-1.11-6.91c-.08-.51-.54-.85-.96-.73l-13.47,4.05c-.42.13-.61.67-.4,1.14l2.89,6.38c.17.38.55.58.89.48Z"/>
                </g>
                <g>
                  <line class="cls-30" x1="63.39" y1="94.81" x2="67.62" y2="86.95"/>
                  <line class="cls-30" x1="44.95" y1="93.06" x2="42.41" y2="84.6"/>
                  <line class="cls-30" x1="30.86" y1="105.03" x2="22.91" y2="100.76"/>
                </g>
              </g>
              <g>
                <rect class="cls-17" x="378.36" y="96.8" width="52.55" height="32.6" transform="translate(732.87 375.36) rotate(-156.99)"/>
                <path class="cls-1" d="M422.45,138.37l-15.3-23.78c-1.2-1.7-3.25-2.57-5.3-2.25l-27.76,5.5,48.37,20.54Z"/>
                <path class="cls-25" d="M435.19,108.37l-28.64,7.59c-2.05.32-4.11-.56-5.3-2.25l-14.43-25.87,48.37,20.54Z"/>
              </g>
              <g>
                <g>
                  <path class="cls-17" d="M162.29,18.12l.56,2.69,4.79,22.92c.46,2.19-.78,4.3-2.86,4.85l-33.64,8.92c-2.08.55-4.21-.66-4.9-2.79l-7.2-22.28-.84-2.61c-.72-2.22.6-4.63,2.84-5.22l36.21-9.61c2.24-.59,4.57.84,5.05,3.13Z"/>
                  <path class="cls-25" d="M162.29,18.12l.56,2.69-43.82,11.62-.84-2.61c-.72-2.22.6-4.63,2.84-5.22l36.21-9.61c2.24-.59,4.57.84,5.05,3.13Z"/>
                </g>
                <g>
                  <g>
                    <rect class="cls-17" x="123.65" y="21.45" width="2.29" height="5.54" transform="translate(-2.04 32.81) rotate(-14.86)"/>
                    <rect class="cls-17" x="127.62" y="20.39" width="2.29" height="5.54" transform="translate(-1.63 33.79) rotate(-14.86)"/>
                  </g>
                  <g>
                    <rect class="cls-17" x="148.66" y="14.81" width="2.29" height="5.54" transform="translate(.5 39) rotate(-14.86)"/>
                    <rect class="cls-17" x="152.64" y="13.76" width="2.29" height="5.54" transform="translate(.9 39.98) rotate(-14.86)"/>
                  </g>
                </g>
                <g class="cls-14">
                  <polygon class="cls-5" points="128.9 32.54 123.86 33.88 125.54 38.95 130.49 37.64 128.9 32.54"/>
                  <polygon class="cls-5" points="136.52 30.52 131.48 31.86 133.02 36.96 137.98 35.65 136.52 30.52"/>
                  <polygon class="cls-5" points="140.51 34.98 145.47 33.66 144.14 28.5 139.1 29.84 140.51 34.98"/>
                  <polygon class="cls-5" points="126.57 42.1 128.15 46.89 132.97 45.61 131.47 40.8 126.57 42.1"/>
                  <polygon class="cls-5" points="133.98 40.13 135.44 44.96 140.25 43.68 138.88 38.83 133.98 40.13"/>
                  <polygon class="cls-5" points="142.72 43.03 147.54 41.75 146.29 36.87 141.39 38.17 142.72 43.03"/>
                  <polygon class="cls-5" points="150 41.1 154.82 39.82 153.69 34.9 148.79 36.2 150 41.1"/>
                  <polygon class="cls-5" points="156.2 34.24 157.29 39.16 162.1 37.89 161.1 32.94 156.2 34.24"/>
                  <polygon class="cls-5" points="144.81 50.65 149.5 49.4 148.31 44.78 143.55 46.05 144.81 50.65"/>
                  <polygon class="cls-5" points="151.9 48.77 156.59 47.52 155.52 42.87 150.75 44.13 151.9 48.77"/>
                  <polygon class="cls-5" points="158.99 46.89 163.68 45.64 162.73 40.96 157.96 42.22 158.99 46.89"/>
                </g>
              </g>
              <g>
                <path class="cls-17" d="M321.97,17.78c-5.68-.79-10.91,3.21-11.63,8.92-.26,2.05.08,4.02.98,5.88.16.32.29.63.46.94.1.17.05.27-.07.4-1.49,1.47-2.97,2.96-4.44,4.44-.73.73-1.47,1.47-2.19,2.19l-.13.09s-2.34-2.36-3.49-3.51c-.37-.37-.98-.37-1.34,0-.52.52-1.04,1.02-1.55,1.54-.36.37-.36.98,0,1.35,1.15,1.13,3.47,3.44,3.47,3.44,0,0-1.61,1.61-2.42,2.39-1.42-1.53-2.91-3.11-4.37-4.67-.37-.39-.99-.4-1.36-.03-.53.53-1.05,1.04-1.58,1.57-.36.35-.37.94-.03,1.32,1.49,1.59,2.98,3.18,4.49,4.8-.61.6-1.57,1.56-2.22,2.19-.37.37-.37.98,0,1.35l.67.66.91.91c.37.37.97.37,1.34,0,1.92-1.91,7.5-7.47,10.49-10.47,2.2-2.2,4.4-4.41,6.6-6.61.18-.18.31-.21.53-.09,1.19.61,2.42,1.13,3.76,1.35.85.15,1.71.18,2.53.11,4.35-.35,8.15-3.5,9.18-7.93,1.35-5.92-2.61-11.71-8.61-12.53ZM320.55,34.15c-3.42,0-6.18-2.77-6.18-6.19s2.77-6.16,6.19-6.16c3.44,0,6.16,2.75,6.15,6.19,0,3.41-2.76,6.15-6.17,6.15Z"/>
                <path class="cls-1" d="M321.4,38.24c-.83.07-1.68.04-2.53-.11-1.34-.22-2.58-.74-3.76-1.35-.23-.12-.35-.09-.53.09-2.2,2.2-4.4,4.41-6.6,6.61-2.99,2.99-8.57,8.55-10.49,10.47-.37.37-.97.37-1.34,0l-.91-.91,20.24-19.66,5.93,4.86Z"/>
                <path class="cls-27" d="M321.98,17.77c-5.69-.79-10.91,3.21-11.64,8.92-.26,2.05.08,4.02.99,5.88.16.32.29.64.46.94.96,1.4,2.03,2.57,3.32,3.26,1.19.61,2.42,1.13,3.76,1.36,5.33.9,10.49-2.54,11.71-7.82,1.36-5.92-2.61-11.7-8.6-12.53ZM320.55,34.16c-3.42,0-6.18-2.77-6.17-6.19,0-3.43,2.76-6.16,6.19-6.16,3.44,0,6.16,2.75,6.15,6.2,0,3.41-2.76,6.15-6.17,6.15Z"/>
                <path class="cls-17" d="M302.05,43.45h0s2.94-2.84,2.9-2.82c-1.17-1.18-2.34-2.36-3.49-3.52-.37-.37-.98-.37-1.35,0-.52.52-1.04,1.03-1.54,1.54-.37.37-.37.98,0,1.35,1.15,1.13,2.32,2.29,3.48,3.44Z"/>
                <path class="cls-17" d="M299.63,45.84s-2.91-3.11-4.37-4.67c-.37-.39-.99-.4-1.36-.02-.53.52-1.05,1.04-1.58,1.56-.36.36-.37.94-.02,1.32,1.49,1.59,4.49,4.79,4.49,4.79l2.85-2.98Z"/>
              </g>
            </g>
          </g>
          <g class="cls-29">
            <path class="cls-6" d="M147.87,129.67c.49-1.52.74-3.11.73-4.72v-.04s-2.62,0-2.62,0c0,0,0,0,0,0-.01-1.37-.25-2.68-.67-3.92,0,0,0,0,0,0l2.49-.8c-.52-1.52-1.28-2.95-2.26-4.25l-2.11,1.52s0,0,0,0c-.81-1.07-1.79-2.02-2.9-2.8,0,0,0,0,0,0l1.53-2.08c-1.34-.94-2.81-1.67-4.38-2.16l-.79,2.44s0,0,0,0c-1.26-.4-2.6-.61-3.99-.62-.01,0-.02,0-.03,0l-.02-2.56c-1.65,0-3.27.26-4.82.75l.83,2.44s0,0,0,0c-1.31.42-2.52,1.03-3.6,1.81,0,0,0,0,0,0l-1.57-2.08c-1.32.94-2.47,2.08-3.43,3.38l2.14,1.51s0,0,0,0c-.79,1.07-1.4,2.26-1.82,3.54,0,0,0,0,0,0l-2.51-.79c-.49,1.51-.73,3.09-.72,4.69v.02s2.62-.01,2.62-.01c0,0,0,0,0,0,0,1.37.25,2.69.67,3.93,0,0,0,0,0,0l-2.49.79c.52,1.52,1.28,2.95,2.25,4.25l2.11-1.51s0,0,0,0c.81,1.08,1.79,2.02,2.89,2.81,0,0,0,0,0,0l-1.53,2.08c1.34.95,2.81,1.68,4.37,2.17l.79-2.44s0,0,0,0c1.26.4,2.61.62,4.01.62,0,0,0,0,.01,0l.02,2.56h0c1.65,0,3.27-.25,4.82-.74l-.83-2.44s0,0,0,0c1.31-.42,2.52-1.03,3.6-1.81,0,0,0,0,0,0l1.56,2.08c1.32-.94,2.47-2.08,3.43-3.37l-2.14-1.51s0,0,0,0c.79-1.07,1.41-2.25,1.83-3.53,0,0,0,0,0,0l2.5.79ZM135.85,131.1c-5.9,2.35-11.56-3.15-9.19-8.93.63-1.52,1.88-2.76,3.44-3.38,5.9-2.36,11.57,3.15,9.19,8.93-.63,1.52-1.88,2.75-3.44,3.38Z"/>
            <path class="cls-6" d="M237.73,15.49c.38-1.18.57-2.41.57-3.65v-.03s-2.03,0-2.03,0c0,0,0,0,0,0-.01-1.06-.19-2.08-.52-3.03,0,0,0,0,0,0l1.93-.62c-.4-1.18-.99-2.29-1.75-3.29l-1.64,1.17s0,0,0,0c-.63-.83-1.39-1.56-2.25-2.17,0,0,0,0,0,0l1.18-1.61c-1.04-.73-2.18-1.29-3.39-1.68l-.61,1.89s0,0,0,0c-.98-.31-2.01-.48-3.09-.48,0,0-.02,0-.02,0l-.02-1.99c-1.28,0-2.53.2-3.73.58l.64,1.89s0,0,0,0c-1.01.32-1.95.8-2.79,1.4,0,0,0,0,0,0l-1.21-1.61c-1.02.73-1.91,1.61-2.65,2.62l1.66,1.17s0,0,0,0c-.61.83-1.09,1.75-1.41,2.74,0,0,0,0,0,0l-1.94-.61c-.38,1.17-.57,2.39-.56,3.64v.02s2.03,0,2.03,0c0,0,0,0,0,0,0,1.06.19,2.09.52,3.05,0,0,0,0,0,0l-1.93.61c.4,1.18.99,2.29,1.75,3.3l1.64-1.17s0,0,0,0c.63.83,1.38,1.57,2.24,2.17,0,0,0,0,0,0l-1.19,1.61c1.04.73,2.18,1.3,3.39,1.68l.61-1.89s0,0,0,0c.98.31,2.02.48,3.11.48,0,0,0,0,0,0v1.98h.01c1.28,0,2.53-.19,3.74-.58l-.64-1.89s0,0,0,0c1.01-.32,1.95-.8,2.79-1.4,0,0,0,0,0,0l1.21,1.61c1.02-.73,1.92-1.61,2.66-2.61l-1.66-1.17s0,0,0,0c.61-.83,1.09-1.75,1.41-2.74,0,0,0,0,0,0l1.94.62ZM228.42,16.59c-4.57,1.82-8.96-2.44-7.12-6.91.49-1.18,1.46-2.13,2.66-2.62,4.57-1.83,8.96,2.44,7.12,6.91-.49,1.18-1.46,2.13-2.66,2.61Z"/>
            <path class="cls-6" d="M409.58,52.19c.49-1.52.74-3.11.73-4.72v-.04s-2.62,0-2.62,0c0,0,0,0,0,0-.01-1.37-.25-2.68-.67-3.92,0,0,0,0,0,0l2.49-.8c-.52-1.52-1.28-2.95-2.26-4.25l-2.11,1.52s0,0,0,0c-.81-1.07-1.79-2.02-2.9-2.8,0,0,0,0,0,0l1.53-2.08c-1.34-.94-2.81-1.67-4.38-2.16l-.79,2.44s0,0,0,0c-1.26-.4-2.6-.61-3.99-.62-.01,0-.02,0-.03,0l-.02-2.56c-1.65,0-3.27.26-4.82.75l.83,2.44s0,0,0,0c-1.31.42-2.52,1.03-3.6,1.81,0,0,0,0,0,0l-1.57-2.08c-1.32.94-2.47,2.08-3.43,3.38l2.14,1.51s0,0,0,0c-.79,1.07-1.4,2.26-1.82,3.54,0,0,0,0,0,0l-2.51-.79c-.49,1.51-.73,3.09-.72,4.69v.02s2.62-.01,2.62-.01c0,0,0,0,0,0,0,1.37.25,2.69.67,3.93,0,0,0,0,0,0l-2.49.79c.52,1.52,1.28,2.95,2.25,4.25l2.11-1.51s0,0,0,0c.81,1.08,1.79,2.02,2.89,2.81,0,0,0,0,0,0l-1.53,2.08c1.34.95,2.81,1.68,4.37,2.17l.79-2.44s0,0,0,0c1.26.4,2.61.62,4.01.62,0,0,0,0,.01,0l.02,2.56h0c1.65,0,3.27-.25,4.82-.74l-.83-2.44s0,0,0,0c1.31-.42,2.52-1.03,3.61-1.81,0,0,0,0,0,0l1.56,2.08c1.32-.94,2.47-2.08,3.43-3.37l-2.14-1.51s0,0,0,0c.79-1.07,1.41-2.25,1.83-3.53,0,0,0,0,0,0l2.5.79ZM397.55,53.61c-5.9,2.35-11.56-3.15-9.19-8.93.63-1.52,1.88-2.76,3.44-3.38,5.9-2.36,11.57,3.15,9.19,8.93-.63,1.52-1.88,2.75-3.44,3.38Z"/>
            <path class="cls-6" d="M320.98,102.79c.21-.65.32-1.33.31-2.02v-.02s-1.12,0-1.12,0c0,0,0,0,0,0,0-.59-.11-1.15-.29-1.68,0,0,0,0,0,0l1.07-.34c-.22-.65-.55-1.26-.97-1.82l-.91.65s0,0,0,0c-.35-.46-.77-.86-1.24-1.2,0,0,0,0,0,0l.66-.89c-.57-.4-1.2-.72-1.87-.93l-.34,1.05s0,0,0,0c-.54-.17-1.11-.26-1.71-.26,0,0,0,0-.01,0v-1.1c-.72,0-1.41.11-2.07.32l.36,1.05s0,0,0,0c-.56.18-1.08.44-1.54.78,0,0,0,0,0,0l-.67-.89c-.56.4-1.06.89-1.47,1.45l.92.65s0,0,0,0c-.34.46-.6.97-.78,1.51,0,0,0,0,0,0l-1.07-.34c-.21.65-.31,1.32-.31,2.01h0s1.12,0,1.12,0c0,0,0,0,0,0,0,.59.11,1.15.29,1.68,0,0,0,0,0,0l-1.07.34c.22.65.55,1.27.97,1.82l.91-.65s0,0,0,0c.35.46.77.87,1.24,1.2,0,0,0,0,0,0l-.66.89c.57.4,1.2.72,1.87.93l.34-1.05s0,0,0,0c.54.17,1.12.27,1.72.27,0,0,0,0,0,0v1.1h0c.71,0,1.4-.11,2.07-.32l-.35-1.05s0,0,0,0c.56-.18,1.08-.44,1.54-.77,0,0,0,0,0,0l.67.89c.57-.4,1.06-.89,1.47-1.44l-.92-.65s0,0,0,0c.34-.46.6-.97.78-1.51,0,0,0,0,0,0l1.07.34ZM315.83,103.4c-2.53,1.01-4.95-1.35-3.94-3.82.27-.65.81-1.18,1.47-1.45,2.53-1.01,4.95,1.35,3.94,3.82-.27.65-.81,1.18-1.47,1.45Z"/>
            <path class="cls-6" d="M63.96,48.01c.26-.81.39-1.65.39-2.51v-.02s-1.39,0-1.39,0c0,0,0,0,0,0,0-.73-.13-1.43-.36-2.08,0,0,0,0,0,0l1.32-.42c-.28-.81-.68-1.57-1.2-2.26l-1.12.81s0,0,0,0c-.43-.57-.95-1.07-1.54-1.49,0,0,0,0,0,0l.81-1.11c-.71-.5-1.49-.89-2.33-1.15l-.42,1.3s0,0,0,0c-.67-.21-1.38-.33-2.12-.33,0,0-.01,0-.02,0v-1.36c-.89,0-1.75.14-2.57.4l.44,1.3s0,0,0,0c-.69.22-1.34.55-1.91.96,0,0,0,0,0,0l-.83-1.1c-.7.5-1.31,1.11-1.82,1.8l1.14.8s0,0,0,0c-.42.57-.75,1.2-.97,1.88,0,0,0,0,0,0l-1.33-.42c-.26.8-.39,1.64-.38,2.49h0s1.39,0,1.39,0c0,0,0,0,0,0,0,.73.13,1.43.36,2.09,0,0,0,0,0,0l-1.32.42c.28.81.68,1.57,1.2,2.26l1.12-.8s0,0,0,0c.43.57.95,1.07,1.54,1.49,0,0,0,0,0,0l-.81,1.1c.71.5,1.49.89,2.32,1.15l.42-1.3s0,0,0,0c.67.21,1.39.33,2.13.33,0,0,0,0,0,0v1.36h0c.88,0,1.74-.13,2.56-.39l-.44-1.3s0,0,0,0c.69-.22,1.34-.55,1.92-.96,0,0,0,0,0,0l.83,1.1c.7-.5,1.32-1.1,1.82-1.79l-1.14-.8s0,0,0,0c.42-.57.75-1.2.97-1.88,0,0,0,0,0,0l1.33.42ZM57.57,48.77c-3.14,1.25-6.15-1.67-4.88-4.74.33-.81,1-1.46,1.83-1.79,3.14-1.25,6.15,1.67,4.88,4.74-.33.81-1,1.46-1.83,1.79Z"/>
          </g>
        </g>
      </g>
    </g>
  </g>
</svg>